<svg width="51" height="52" viewBox="0 0 51 52" fill="none" xmlns="http://www.w3.org/2000/svg">
<path d="M3.01172 49.4082H6.85938C7.86849 49.4082 8.60417 49.2161 9.06641 48.832C9.52865 48.4479 9.75977 47.9076 9.75977 47.2109V47.1816C9.75977 46.6999 9.67513 46.2865 9.50586 45.9414C9.3431 45.5964 9.08268 45.3327 8.72461 45.1504C8.36654 44.9616 7.90755 44.8672 7.34766 44.8672H3.01172V43.0703H7.34766C8.08333 43.0703 8.63672 42.8978 9.00781 42.5527C9.38542 42.2077 9.57422 41.6966 9.57422 41.0195C9.57422 40.3099 9.36589 39.7793 8.94922 39.4277C8.53255 39.0762 7.90755 38.9004 7.07422 38.9004H3.01172V37.0547H7.43555C8.35352 37.0547 9.12174 37.2109 9.74023 37.5234C10.3587 37.8359 10.821 38.2786 11.127 38.8516C11.4329 39.4245 11.5859 40.1081 11.5859 40.9023C11.5859 41.3906 11.4915 41.8496 11.3027 42.2793C11.1139 42.7025 10.8242 43.0671 10.4336 43.373C10.0495 43.6725 9.57096 43.8743 8.99805 43.9785C9.57096 44.0632 10.0658 44.2682 10.4824 44.5938C10.8991 44.9128 11.2181 45.3132 11.4395 45.7949C11.6608 46.2767 11.7715 46.7975 11.7715 47.3574V47.3867C11.7715 48.1549 11.6022 48.832 11.2637 49.418C10.9251 50.0039 10.4401 50.4564 9.80859 50.7754C9.17708 51.0944 8.44141 51.2539 7.60156 51.2539H3.01172V49.4082ZM1.83984 37.0547H3.82227V51.2539H1.83984V37.0547ZM22.2773 44.8281C22.2773 44.1641 22.0983 43.6497 21.7402 43.2852C21.3887 42.9141 20.8874 42.7285 20.2363 42.7285C19.8327 42.7285 19.4355 42.7904 19.0449 42.9141C18.6608 43.0378 18.319 43.2103 18.0195 43.4316L16.5645 42.4355C16.9486 41.9733 17.4531 41.6152 18.0781 41.3613C18.7096 41.1009 19.4095 40.9707 20.1777 40.9707C21.0176 40.9707 21.737 41.1204 22.3359 41.4199C22.9349 41.7129 23.3906 42.1426 23.7031 42.709C24.0156 43.2689 24.1719 43.946 24.1719 44.7402V51.2539H22.2773V44.8281ZM19.7969 51.4004C18.5469 51.4004 17.6126 51.1432 16.9941 50.6289C16.3757 50.1081 16.0664 49.3203 16.0664 48.2656C16.0664 47.263 16.3496 46.5111 16.916 46.0098C17.4824 45.5085 18.3385 45.2578 19.4844 45.2578H22.3652L22.502 46.8594H19.4941C18.9733 46.8594 18.5827 46.9766 18.3223 47.2109C18.0684 47.4388 17.9414 47.7904 17.9414 48.2656C17.9414 48.7799 18.1107 49.1608 18.4492 49.4082C18.7943 49.6556 19.3151 49.7793 20.0117 49.7793C20.7734 49.7793 21.3398 49.6979 21.7109 49.5352C22.0885 49.3724 22.2773 49.1185 22.2773 48.7734L22.4824 50.1992C22.3066 50.4727 22.0885 50.6973 21.8281 50.873C21.5742 51.0488 21.278 51.179 20.9395 51.2637C20.6009 51.3548 20.2201 51.4004 19.7969 51.4004ZM33.291 51.4004C32.3665 51.4004 31.5755 51.2279 30.918 50.8828C30.2669 50.5378 29.7689 50.0365 29.4238 49.3789C29.0788 48.7214 28.9062 47.9271 28.9062 46.9961V45.3262C28.9062 44.4082 29.0788 43.6237 29.4238 42.9727C29.7689 42.3216 30.2669 41.8268 30.918 41.4883C31.5755 41.1432 32.3665 40.9707 33.291 40.9707C33.8184 40.9707 34.3132 41.0358 34.7754 41.166C35.2441 41.2897 35.6641 41.472 36.0352 41.7129C36.4062 41.9538 36.7155 42.2467 36.9629 42.5918L35.5273 43.8809C35.2409 43.5553 34.9056 43.3047 34.5215 43.1289C34.1374 42.9531 33.737 42.8652 33.3203 42.8652C32.5521 42.8652 31.9564 43.0801 31.5332 43.5098C31.11 43.9395 30.8984 44.5449 30.8984 45.3262V46.9961C30.8984 47.7969 31.1068 48.4154 31.5234 48.8516C31.9466 49.2878 32.5456 49.5059 33.3203 49.5059C33.7435 49.5059 34.1471 49.4115 34.5312 49.2227C34.9154 49.0339 35.2474 48.7669 35.5273 48.4219L36.9629 49.8086C36.709 50.1471 36.3965 50.4368 36.0254 50.6777C35.6543 50.9121 35.2344 51.0911 34.7656 51.2148C34.3034 51.3385 33.8118 51.4004 33.291 51.4004ZM42.0195 47.4062L47.2344 41.1172H49.5781L41.8926 49.7695L42.0195 47.4062ZM41.1602 37.0547H43.1523V51.2539H41.1602V37.0547ZM44.373 45.4043L45.6523 44.0762L50.0762 51.2539H47.9082L44.373 45.4043Z" fill="black"/>
<path d="M5.19593 13.5757L23.8536 1.89276L24.2957 24.521L5.19593 13.5757Z" fill="black"/>
</svg>
