<svg width="108" height="32" viewBox="0 0 108 32" fill="none" xmlns="http://www.w3.org/2000/svg">
<path d="M16.2676 18.1201H19.4805C20.5286 18.1201 21.3392 17.8499 21.9121 17.3096C22.4915 16.7627 22.7812 15.9945 22.7812 15.0049V10.8252C22.7812 9.83561 22.4915 9.07064 21.9121 8.53027C21.3392 7.9834 20.5286 7.70996 19.4805 7.70996H16.2676V5.81543H19.4219C20.5612 5.81543 21.5345 6.014 22.3418 6.41113C23.1491 6.80827 23.7643 7.3877 24.1875 8.14941C24.6107 8.91113 24.8223 9.8291 24.8223 10.9033V14.9268C24.8223 16.001 24.6107 16.9189 24.1875 17.6807C23.7643 18.4424 23.1458 19.0218 22.332 19.4189C21.5247 19.8161 20.5514 20.0146 19.4121 20.0146H16.2676V18.1201ZM14.9199 5.81543H16.9121V20.0146H14.9199V5.81543ZM29.8496 9.87793H31.8418V20.0146H29.8496V9.87793ZM35.4258 12.2803C35.25 12.0654 35.0286 11.9027 34.7617 11.792C34.4948 11.6813 34.1855 11.626 33.834 11.626C33.2025 11.626 32.7109 11.8018 32.3594 12.1533C32.0143 12.4984 31.8418 12.9801 31.8418 13.5986L31.6367 11.6455C31.9492 11.04 32.3529 10.5713 32.8477 10.2393C33.3424 9.90072 33.8893 9.73145 34.4883 9.73145C34.9505 9.73145 35.3672 9.7998 35.7383 9.93652C36.1159 10.0667 36.4447 10.262 36.7246 10.5225L35.4258 12.2803ZM46.1074 13.5889C46.1074 12.9248 45.9284 12.4105 45.5703 12.0459C45.2188 11.6748 44.7174 11.4893 44.0664 11.4893C43.6628 11.4893 43.2656 11.5511 42.875 11.6748C42.4909 11.7985 42.1491 11.971 41.8496 12.1924L40.3945 11.1963C40.7786 10.734 41.2832 10.376 41.9082 10.1221C42.5397 9.86165 43.2396 9.73145 44.0078 9.73145C44.8477 9.73145 45.5671 9.88118 46.166 10.1807C46.765 10.4736 47.2207 10.9033 47.5332 11.4697C47.8457 12.0296 48.002 12.7067 48.002 13.501V20.0146H46.1074V13.5889ZM43.627 20.1611C42.377 20.1611 41.4427 19.904 40.8242 19.3896C40.2057 18.8688 39.8965 18.0811 39.8965 17.0264C39.8965 16.0238 40.1797 15.2718 40.7461 14.7705C41.3125 14.2692 42.1686 14.0186 43.3145 14.0186H46.1953L46.332 15.6201H43.3242C42.8034 15.6201 42.4128 15.7373 42.1523 15.9717C41.8984 16.1995 41.7715 16.5511 41.7715 17.0264C41.7715 17.5407 41.9408 17.9215 42.2793 18.1689C42.6243 18.4163 43.1452 18.54 43.8418 18.54C44.6035 18.54 45.1699 18.4587 45.541 18.2959C45.9186 18.1331 46.1074 17.8792 46.1074 17.5342L46.3125 18.96C46.1367 19.2334 45.9186 19.458 45.6582 19.6338C45.4043 19.8096 45.1081 19.9398 44.7695 20.0244C44.431 20.1156 44.0501 20.1611 43.627 20.1611ZM56.4277 24.1357C55.666 24.1357 54.9824 23.9925 54.377 23.7061C53.778 23.4261 53.3125 23.029 52.9805 22.5146L54.3281 21.2939C54.5885 21.652 54.8978 21.9287 55.2559 22.124C55.6204 22.3193 56.0013 22.417 56.3984 22.417C57.1602 22.417 57.7493 22.2054 58.166 21.7822C58.5827 21.3656 58.791 20.7731 58.791 20.0049V9.87793H60.7832V19.7119C60.7832 20.6429 60.6107 21.4404 60.2656 22.1045C59.9271 22.7686 59.4323 23.2731 58.7812 23.6182C58.1302 23.9632 57.3457 24.1357 56.4277 24.1357ZM56.2422 20.1904C55.5 20.1904 54.8652 20.0309 54.3379 19.7119C53.8171 19.3864 53.4199 18.9144 53.1465 18.2959C52.873 17.6774 52.7363 16.9352 52.7363 16.0693V13.833C52.7363 12.9606 52.8698 12.2152 53.1367 11.5967C53.4036 10.9782 53.791 10.5094 54.2988 10.1904C54.8132 9.86491 55.4284 9.70215 56.1445 9.70215C56.7435 9.70215 57.2904 9.8584 57.7852 10.1709C58.2865 10.4834 58.6901 10.9229 58.9961 11.4893L58.791 13.5596C58.791 13.1299 58.7129 12.762 58.5566 12.4561C58.4004 12.1501 58.1725 11.9189 57.873 11.7627C57.5801 11.5999 57.222 11.5186 56.7988 11.5186C56.1413 11.5186 55.6302 11.7236 55.2656 12.1338C54.9076 12.5439 54.7285 13.1201 54.7285 13.8623V16.0693C54.7285 16.805 54.9076 17.3747 55.2656 17.7783C55.6302 18.1755 56.1413 18.374 56.7988 18.374C57.222 18.374 57.5801 18.2926 57.873 18.1299C58.1725 17.9606 58.4004 17.7197 58.5566 17.4072C58.7129 17.0947 58.791 16.7204 58.791 16.2842L58.9277 18.4229C58.7259 18.9242 58.3939 19.3441 57.9316 19.6826C57.4759 20.0212 56.9128 20.1904 56.2422 20.1904ZM85.291 13.8721C85.291 13.1559 85.1055 12.6025 84.7344 12.2119C84.3633 11.8213 83.8424 11.626 83.1719 11.626C82.5534 11.626 82.0749 11.8148 81.7363 12.1924C81.3978 12.57 81.2285 13.1038 81.2285 13.7939L80.8281 11.8408C81.1471 11.1702 81.5671 10.6527 82.0879 10.2881C82.6152 9.91699 83.1947 9.73145 83.8262 9.73145C84.5553 9.73145 85.1771 9.89421 85.6914 10.2197C86.2122 10.5387 86.6061 11.0075 86.873 11.626C87.1465 12.2445 87.2832 12.9899 87.2832 13.8623V20.0146H85.291V13.8721ZM73.1816 9.87793H75.1738V20.0146H73.1816V9.87793ZM79.2363 13.8721C79.2363 13.1559 79.0605 12.6025 78.709 12.2119C78.3574 11.8213 77.8594 11.626 77.2148 11.626C76.5638 11.626 76.0592 11.7985 75.7012 12.1436C75.3496 12.4886 75.1738 12.9736 75.1738 13.5986L74.9688 11.6455C75.2812 11.0335 75.6882 10.5615 76.1895 10.2295C76.6973 9.89746 77.2572 9.73145 77.8691 9.73145C78.5788 9.73145 79.1842 9.89421 79.6855 10.2197C80.1868 10.5387 80.5677 11.0075 80.8281 11.626C81.0951 12.2445 81.2285 12.9899 81.2285 13.8623V20.0146H79.2363V13.8721ZM96.4609 20.1611C95.5234 20.1611 94.7227 19.9854 94.0586 19.6338C93.3945 19.2822 92.8867 18.7679 92.5352 18.0908C92.1901 17.4072 92.0176 16.5837 92.0176 15.6201V14.4775C92.0176 13.4749 92.1836 12.6188 92.5156 11.9092C92.8542 11.1995 93.3424 10.6592 93.9805 10.2881C94.6185 9.91699 95.3867 9.73145 96.2852 9.73145C97.1315 9.73145 97.8542 9.94303 98.4531 10.3662C99.0521 10.7894 99.5078 11.4014 99.8203 12.2021C100.139 13.0029 100.299 13.9632 100.299 15.083V15.7471H93.4629V14.1455H98.4043C98.3457 13.3187 98.1309 12.6774 97.7598 12.2217C97.3952 11.7594 96.9036 11.5283 96.2852 11.5283C95.5299 11.5283 94.944 11.7757 94.5273 12.2705C94.1172 12.7653 93.9121 13.4652 93.9121 14.3701V15.6592C93.9121 16.499 94.1335 17.1436 94.5762 17.5928C95.0189 18.042 95.6471 18.2666 96.4609 18.2666C96.8646 18.2666 97.265 18.1852 97.6621 18.0225C98.0592 17.8597 98.4141 17.6318 98.7266 17.3389L100.035 18.6475C99.5339 19.1292 98.9707 19.5036 98.3457 19.7705C97.7207 20.0309 97.0924 20.1611 96.4609 20.1611ZM105.18 5.81543H107.172V16.3721H105.18V5.81543ZM105.131 17.9248H107.221V20.0146H105.131V17.9248Z" fill="black"/>
<line x1="0.437398" y1="30.9896" x2="12.9314" y2="19.8839" stroke="black" stroke-width="0.694111"/>
</svg>
