<svg width="106" height="18" viewBox="0 0 106 18" fill="none" xmlns="http://www.w3.org/2000/svg">
<path d="M18.0116 16.88L17.9516 17H23.1716L23.1116 16.88L22.5316 16.82C21.4916 16.74 21.3716 16.68 21.3716 16.54V5.02C21.3716 4.88 21.6316 4.76 22.3316 4.7L23.1316 4.62L23.1916 4.5H17.9716L18.0316 4.62L18.6116 4.68C19.6516 4.76 19.7716 4.82 19.7716 4.96V16.48C19.7716 16.62 19.5116 16.74 18.8116 16.8L18.0116 16.88ZM25.7263 16.88L25.6663 17H29.6663L29.6063 16.88L29.3263 16.86C28.4463 16.8 28.3263 16.76 28.3263 16.6V12.92V10.32C28.9663 9.7 29.7663 9.28 30.7063 9.28C31.8863 9.28 32.4663 9.86 32.4663 11.04V16.56C32.4663 16.72 32.3463 16.8 31.6463 16.86L31.2862 16.88L31.2263 17H35.2063L35.1463 16.88L34.8663 16.86C33.8663 16.76 33.8663 16.7 33.8663 16.58V10.78C33.8663 9.92 33.6463 9.26 33.2263 8.84C32.8663 8.46 32.3663 8.28 31.7263 8.28C30.3063 8.28 29.1263 9.42 28.3462 10.08L28.2863 10.04L28.3462 8.32L25.6663 9.02L25.6463 9.1L26.1063 9.18C26.8063 9.28 26.9263 9.54 26.9263 10.76V16.56C26.9263 16.8 26.7063 16.8 26.0863 16.86L25.7263 16.88ZM46.5081 17.28C49.0681 17.28 50.8881 15.38 50.8881 13.36C50.8881 11.2 49.2681 10.22 47.2281 9.52C45.5681 8.94 44.3281 8.3 44.3281 6.76C44.3281 5.4 45.3881 4.4 46.8681 4.4C47.7681 4.4 48.3481 4.7 48.8881 5.1L50.2081 7.5H50.3281L50.1481 4.44L49.3481 4.68C48.6881 4.44 47.8681 4.22 46.8881 4.22C44.5681 4.22 43.1281 5.82 43.1281 7.62C43.1281 9.56 44.6681 10.44 46.4281 11.02C48.4081 11.66 49.5481 12.5 49.5481 14.16C49.5481 15.84 48.3281 17.08 46.5281 17.08C44.9281 17.08 43.8081 16.4 43.1081 14.72L42.6881 13.74H42.5681L42.7681 16.58C43.8681 16.96 45.3281 17.28 46.5081 17.28ZM56.9556 17.26C57.9956 17.26 58.7956 16.52 59.5956 15.72L59.4956 15.66C59.0356 16.04 58.5556 16.44 57.7756 16.44C56.9956 16.44 56.4756 16.02 56.4956 15.16L56.6356 9.24H59.2156L59.4956 8.54H56.6356L56.6556 6.76L56.0756 6.74L54.9556 8.46L53.7956 8.84L53.6556 9.26L55.2156 9.28L55.0956 15.32C55.0956 16.82 55.9756 17.26 56.9556 17.26ZM66.2355 17.1C65.5755 17.1 64.9955 16.86 64.5355 16.4C63.7555 15.62 63.3955 14.2 63.3955 12.54C63.3955 10.38 64.4555 8.42 66.1755 8.42C66.8955 8.42 67.4355 8.74 67.8955 9.16C68.6755 9.94 68.9955 11.36 68.9955 12.9C68.9955 15.14 67.8955 17.1 66.2355 17.1ZM66.2155 17.26C68.7355 17.26 70.6755 15.28 70.6755 12.72C70.6755 10.2 68.7555 8.26 66.2155 8.26C63.6555 8.26 61.7355 10.3 61.7355 12.8C61.7355 15.32 63.6555 17.26 66.2155 17.26ZM77.4025 17.26C79.0225 17.26 80.0825 16.3 80.9625 14.72L80.8025 14.66C80.0625 15.86 79.3225 16.26 78.1025 16.26C76.3425 16.26 74.9625 14.7 74.9625 12.32C74.9625 10.04 76.3225 8.42 77.9225 8.42C78.6625 8.42 79.3625 8.96 79.3625 9.22C79.3625 9.38 78.9625 9.58 78.9625 10.22C78.9625 10.68 79.3225 11.06 79.8625 11.06C80.3225 11.06 80.7625 10.64 80.7625 10.1C80.7625 8.98 79.5025 8.26 77.8825 8.26C75.2625 8.26 73.4425 10.36 73.4425 12.96C73.4425 15.36 75.1625 17.26 77.4025 17.26ZM83.2889 16.88L83.2289 17H87.1889L87.1289 16.88L86.8489 16.86C85.9689 16.8 85.8489 16.76 85.8489 16.6V13.36L86.7889 12.46L89.3489 16.76L89.4489 17H92.2289L92.1689 16.88L91.9489 16.86C91.0889 16.76 90.9889 16.62 90.3289 15.56L87.8289 11.44L87.8889 11.38C87.9489 11.32 87.9489 11.3 88.0089 11.24L88.2089 11.04C89.7889 9.46 90.2689 8.78 91.1889 8.72L91.6089 8.68L91.6689 8.56H87.8889L87.9289 8.68L88.1889 8.7C88.8889 8.76 89.2489 8.94 89.2489 9.26C89.2489 9.64 88.6089 10.4 87.8289 11.18L85.8489 13.12V3.54L83.2089 4.2L83.1889 4.28L83.6489 4.36C84.3489 4.46 84.4489 4.7 84.4489 5.5V16.56C84.4489 16.8 84.2489 16.8 83.6289 16.86L83.2889 16.88Z" fill="black"/>
<circle cx="6.94111" cy="7.63544" r="6.94111" fill="#75B09C"/>
</svg>
